<svg xmlns="http://www.w3.org/2000/svg" width="24" height="24" viewBox="0 0 24 24"><path fill="#fff" d="M13.271 9.231l1.581.88 2.502-.846v-1.696c0-2.925-2.445-5.202-5.354-5.202-2.897 0-5.354 2.129-5.354 5.17v7.749c0 .702-.568 1.27-1.27 1.27s-1.271-.568-1.271-1.27v-3.284h-4.105v3.328c0 2.963 2.402 5.365 5.365 5.365 2.937 0 5.323-2.361 5.364-5.288v-7.653c0-.702.569-1.27 1.271-1.27s1.271.568 1.271 1.27v1.477zm6.624 2.772v3.437c0 .702-.569 1.27-1.271 1.27s-1.271-.568-1.271-1.27v-3.372l-2.502.847-1.581-.881v3.344c.025 2.941 2.418 5.317 5.364 5.317 2.963 0 5.365-2.402 5.365-5.365v-3.328h-4.104z"/></svg>
